<?xml version="1.0" encoding="UTF-8" standalone="no"?>
<!-- Created with Inkscape (http://www.inkscape.org/) -->

<svg
   version="1.1"
   id="svg1"
   width="3800"
   height="910"
   viewBox="0 0 3800 910"
   sodipodi:docname="Teamcorelogo.svg"
   inkscape:version="1.4.3 (0d15f75042, 2025-12-25)"
   xmlns:inkscape="http://www.inkscape.org/namespaces/inkscape"
   xmlns:sodipodi="http://sodipodi.sourceforge.net/DTD/sodipodi-0.dtd"
   xmlns="http://www.w3.org/2000/svg"
   xmlns:svg="http://www.w3.org/2000/svg">
  <sodipodi:namedview
     id="namedview1"
     pagecolor="#505050"
     bordercolor="#eeeeee"
     borderopacity="1"
     inkscape:showpageshadow="0"
     inkscape:pageopacity="0"
     inkscape:pagecheckerboard="0"
     inkscape:deskcolor="#505050"
     inkscape:zoom="0.32"
     inkscape:cx="1639.0625"
     inkscape:cy="134.375"
     inkscape:window-width="1908"
     inkscape:window-height="1028"
     inkscape:window-x="0"
     inkscape:window-y="0"
     inkscape:window-maximized="1"
     inkscape:current-layer="g1" />
  <defs
     id="defs1" />
  <g
     inkscape:groupmode="layer"
     inkscape:label="Image"
     id="g1">
    <path
       style="fill:#ff6600;fill-opacity:1;stroke:none;stroke-width:1px;stroke-linecap:butt;stroke-linejoin:miter;stroke-opacity:1"
       d="m 927.40119,467.79565 -0.2511,-442.25 -450.9403,-0.25111 c -360.09305,-0.20051 -451.100288,9.5e-4 -451.734688,1 -0.4369,0.68811 -0.8012,102.40383 -0.8097,226.03491 l -0.015,224.7838 -10.75,-0.2838 -10.75,-0.2838 v -236.5 V 3.5456496 l 473.749988,-0.25105 473.75,-0.25105 V 456.54455 910.0456 h -10.9989 -10.9988 z m 1471.74891,198.1759 c -18.2371,-3.756 -28.3135,-8.2757 -37.361,-16.758 -12.4561,-11.6781 -18.3171,-25.5994 -20.1408,-47.84 -1.3312,-16.2333 -1.3234,-218.9918 0.01,-234.275 1.0093,-11.5777 3.4862,-21.6367 7.4001,-30.0529 3.108,-6.6832 10.842,-16.1955 16.8189,-20.6861 5.6266,-4.2274 15.5996,-9.3139 18.2616,-9.3139 0.8863,0 3.0517,-0.7875 4.8119,-1.75 2.873,-1.571 6.729,-1.75 37.7003,-1.75 30.9713,0 34.8274,0.179 37.7004,1.75 1.7602,0.9625 3.9255,1.75 4.8119,1.75 3.1553,0 15.5496,6.5536 20.8193,11.0085 5.0617,4.2789 12.6683,14.32 12.6683,16.7226 0,0.5632 0.628,1.5451 1.3954,2.1821 0.7675,0.6369 1.7078,2.8295 2.0895,4.8724 0.3818,2.0429 1.1348,4.2478 1.6735,4.8998 0.5387,0.6521 1.8472,7.1771 2.908,14.5 1.6027,11.0649 1.929,19.0095 1.9311,47.0193 v 33.7047 l -3.25,0.5931 c -1.7875,0.3262 -9.1,0.4591 -16.25,0.2953 l -13,-0.2978 -0.6163,-32 c -0.3392,-17.6123 -1.0702,-33.124 -1.6258,-34.5 -0.5551,-1.375 -1.34,-4.9168 -1.744,-7.8705 -1.4268,-10.4297 -10.316,-22.9158 -19.6534,-27.6058 -7.8982,-3.967 -25.186,-6.559 -36.1104,-5.4141 -16.6774,1.7478 -25.2101,4.7344 -31.8201,11.1375 -3.6715,3.5566 -7.9259,9.1654 -7.936,10.4624 0,0.4348 -0.7197,2.1405 -1.5917,3.7905 -0.8721,1.65 -2.2992,7.5 -3.1714,13 -2.3872,15.0531 -3.0439,198.9154 -0.7661,214.5145 0.8444,5.783 1.5353,11.6397 1.5353,13.0148 0,1.3752 0.9,4.1795 2,6.2319 1.1,2.0523 2,4.1632 2,4.6908 0,3.3883 11.7485,15.6948 16,16.7599 1.375,0.3445 4.3,1.3971 6.5,2.3392 8.1986,3.5109 42.4255,3.1934 47.9786,-0.4451 1.3481,-0.8833 3.0795,-1.606 3.8475,-1.606 2.1356,0 12.1665,-8.0778 14.2574,-11.4814 6.3209,-10.2895 7.8304,-16.1146 9.7228,-37.5186 l 1.1936,-13.5 13,-0.2978 c 7.15,-0.1638 14.5065,-0.023 16.3478,0.3137 l 3.3478,0.6114 -0.5246,17.1863 c -0.6817,22.3351 -3.624,40.0559 -7.7517,46.6864 -0.5136,0.825 -1.4733,2.625 -2.1328,4 -1.8336,3.8233 -8.0708,11.5326 -11.8771,14.6804 -1.8751,1.5508 -3.5631,3.1683 -3.751,3.5944 -0.1879,0.4262 -1.7629,1.4297 -3.5,2.2299 -1.7371,0.8003 -3.8334,1.8482 -4.6584,2.3287 -4.3949,2.5598 -9.2914,4.4305 -15.0592,5.753 -3.5424,0.8123 -8.2407,1.8931 -10.4407,2.4017 -4.8928,1.1312 -48.4489,1.081 -54,-0.062 z m 433.9999,0.084 c -2.2,-0.4642 -5.2668,-1.3314 -6.8151,-1.9272 -1.5483,-0.5958 -3.9342,-1.0832 -5.3019,-1.0832 -1.3677,0 -4.1509,-0.8627 -6.1849,-1.9172 -2.0339,-1.0544 -4.8231,-2.4222 -6.1981,-3.0396 -5.368,-2.41 -7.6416,-4.1826 -14.4462,-11.2625 -6.7679,-7.0418 -12.5538,-16.0984 -12.5538,-19.6505 0,-0.9269 -0.6848,-2.6629 -1.5218,-3.8579 -0.837,-1.195 -1.9813,-5.9076 -2.5429,-10.4725 -0.5615,-4.5649 -1.4492,-9.8748 -1.9726,-11.7998 -1.2799,-4.7078 -1.2799,-228.2922 0,-233 0.5234,-1.925 1.4111,-7.2349 1.9726,-11.7998 0.5616,-4.5649 1.7059,-9.2776 2.5429,-10.4725 0.837,-1.195 1.5218,-2.9488 1.5218,-3.8973 0,-1.8253 3.4039,-8.6871 6.5932,-13.2909 2.2827,-3.2952 12.4286,-13.5395 13.4093,-13.5395 0.3803,0 1.7292,-0.9 2.9975,-2 1.2683,-1.1 3.0821,-2 4.0306,-2 0.9485,0 2.2555,-0.6398 2.9045,-1.4218 0.649,-0.782 2.8824,-1.7095 4.963,-2.061 2.0807,-0.3515 5.0923,-1.3786 6.6925,-2.2824 2.4772,-1.3991 7.4453,-1.6997 33.442,-2.0238 18.5952,-0.2318 32.4746,0.021 35.5,0.6471 7.6473,1.5822 17.014,4.513 18.5737,5.8115 0.7727,0.6433 2.6073,1.4714 4.0769,1.8402 1.4697,0.3689 2.9155,1.3051 3.2131,2.0804 0.2975,0.7754 1.1316,1.4098 1.8536,1.4098 1.5211,0 12.2838,10.6174 14.3193,14.1259 0.7575,1.3058 2.0575,3.8058 2.8889,5.5557 0.8314,1.7499 1.9293,3.4398 2.4397,3.7552 0.5105,0.3155 1.2455,2.4838 1.6334,4.8184 0.3879,2.3346 1.3306,5.4667 2.0948,6.96 2.7949,5.4619 3.3423,27.4557 3.3423,134.2848 0,108.0057 -0.5358,128.8292 -3.4606,134.4851 -0.8292,1.6036 -1.5077,3.6408 -1.5077,4.5272 0,1.988 -4.6149,11.9249 -7.425,15.9877 -2.9199,4.2215 -13.072,14.1109 -16.339,15.9161 -1.5048,0.8315 -4.311,2.2232 -6.236,3.0927 -1.925,0.8695 -4.4,2.0122 -5.5,2.5394 -1.1,0.5271 -5.6,1.9406 -10,3.141 -7.1004,1.9371 -10.8674,2.2097 -33.5,2.4238 -14.025,0.1327 -27.3,-0.1385 -29.5,-0.6026 z m 51,-34.9484 c 2.2,-0.9481 5.2222,-2.0296 6.7161,-2.4034 3.5602,-0.8909 12.78,-10.0798 15.2096,-15.1586 4.1272,-8.6275 4.6008,-10.4273 6.0628,-23.0403 2.2959,-19.8077 2.2228,-192.7209 -0.09,-212.3605 -0.8808,-7.4796 -2.2308,-14.5959 -3,-15.814 -0.7693,-1.2182 -1.3987,-2.769 -1.3987,-3.4463 0,-3.9478 -10.1107,-14.8473 -17,-18.3262 -4.2402,-2.1412 -16.5997,-4.9591 -25.5,-5.8138 -7.9619,-0.7645 -26.6564,2.2632 -33.3644,5.4037 -9.2559,4.3333 -20.1065,18.9672 -20.1464,27.1706 -0.01,1.2247 -0.6809,4.4358 -1.5,7.1357 -1.2783,4.214 -1.4892,19.7999 -1.4892,110.0911 0,90.2912 0.2109,105.8771 1.4892,110.0911 0.8191,2.6999 1.4941,5.9109 1.5,7.1356 0.01,1.2248 1.0233,4.7763 2.2608,7.8923 2.6416,6.6515 13.0184,17.938 17.4362,18.9649 1.5476,0.3597 3.924,1.3498 5.2808,2.2003 5.4854,3.4381 39.7352,3.6383 47.533,0.2778 z m -2424.83316,31.2713 c -0.3667,-0.3666 -0.6667,-73.8516 -0.6667,-163.3 0,-125.1592 -0.2765,-162.9098 -1.2,-163.8333 -0.8838,-0.8838 -9.7172,-1.2 -33.5274,-1.2 h -32.3275 l 0.2775,-14.25 0.2774,-14.25 83.74995,-0.2557 83.75,-0.2557 v 14.492 14.4921 l -32.75,0.2636 -32.75,0.2637 -0.253,163.4428 c -0.2,129.2318 -0.514,163.6086 -1.5,164.2347 -1.5072,0.9571 -32.13475,1.1014 -33.08025,0.1558 z m 552.58046,-0.1557 c -0.9975,-0.6363 -1.2012,-36.8484 -1,-177.7383 l 0.2528,-176.9393 72.75,-0.2565 72.75,-0.2566 v 13.4816 13.4816 l -54.5888,0.2749 -54.5888,0.275 -1.9112,2.3608 c -1.8366,2.2687 -1.9112,4.8328 -1.9112,65.75 0,62.0559 0.042,63.4313 2,65.3892 1.9339,1.9339 3.3334,2 42.345,2 37.8156,0 40.4488,0.1146 42,1.8287 1.3404,1.4811 1.655,4.0407 1.655,13.4648 0,10.4808 -0.192,11.7389 -1.9342,12.6713 -1.2433,0.6654 -16.6124,1.0352 -43.0248,1.0352 h -41.0905 l -0.9752,2.5651 c -0.5964,1.5686 -0.9753,27.1606 -0.9753,65.8775 0,57.6631 0.1475,63.435 1.6531,64.6849 1.3495,1.1205 12.0888,1.4228 58.4869,1.6464 l 56.8339,0.274 0.5527,2.226 c 0.3039,1.2244 0.4223,7.6261 0.263,14.2261 l -0.2896,12 -74,0.2384 c -40.7,0.1311 -74.5637,-0.1213 -75.2528,-0.5608 z m 378.0976,-0.7215 c -0.3258,-0.8491 -0.1029,-3.6616 0.4955,-6.25 0.5984,-2.5884 1.5914,-7.1811 2.2067,-10.2061 0.6152,-3.025 1.9814,-8.9291 3.0358,-13.1203 1.0545,-4.1912 1.9172,-9.0431 1.9172,-10.7821 0,-1.739 0.6668,-4.7577 1.4817,-6.7081 0.815,-1.9504 1.888,-6.8184 2.3845,-10.8177 0.4965,-3.9994 1.3722,-8.1487 1.9459,-9.2207 0.5737,-1.072 1.3577,-4.852 1.7422,-8.4001 0.3845,-3.5481 1.295,-7.9155 2.0233,-9.7055 0.7283,-1.79 1.6283,-6.065 2,-9.5 0.3717,-3.435 1.2415,-7.6377 1.9328,-9.3392 0.6913,-1.7016 1.584,-5.9766 1.9837,-9.5 0.3998,-3.5235 1.2998,-7.7985 2,-9.5 0.7003,-1.7016 1.603,-5.9344 2.0059,-9.4063 0.403,-3.4719 1.2983,-7.7048 1.9896,-9.4063 0.6914,-1.7015 1.5612,-5.9042 1.9329,-9.3392 0.3717,-3.435 1.2717,-7.71 2,-9.5 0.7283,-1.79 1.6387,-6.1575 2.0232,-9.7055 0.3845,-3.5481 1.1685,-7.3282 1.7422,-8.4002 0.5738,-1.072 1.4624,-5.3257 1.9748,-9.4527 0.5123,-4.127 1.3609,-8.3059 1.8857,-9.2865 0.5247,-0.9805 1.4415,-5.2867 2.0371,-9.5694 0.5957,-4.2826 1.4916,-8.55 1.991,-9.4831 0.4994,-0.9331 1.3656,-4.9233 1.9249,-8.867 0.5593,-3.9437 1.641,-9.2674 2.4037,-11.8303 0.7626,-2.5629 1.8565,-7.3598 2.4308,-10.6598 1.4124,-8.1156 3.0648,-16.1705 4.3081,-21 0.5664,-2.2 1.4639,-6.7 1.9945,-10 0.5305,-3.3 1.6254,-8.1107 2.433,-10.6903 0.8076,-2.5797 1.8592,-7.803 2.3369,-11.6073 0.4777,-3.8044 1.3361,-7.7908 1.9077,-8.8587 0.5715,-1.0679 1.3537,-4.8446 1.7382,-8.3927 0.3845,-3.5481 1.295,-7.9155 2.0233,-9.7055 0.7283,-1.79 1.641,-6.0554 2.0283,-9.4786 0.3873,-3.4233 1.4997,-8.4838 2.472,-11.2455 l 1.7679,-5.0214 24.9887,-0.267 c 20.6564,-0.2207 25.2379,-0.018 26.4264,1.1707 0.7907,0.7907 1.7284,4.2197 2.0838,7.6199 0.3554,3.4002 1.3,8.2734 2.0992,10.8293 0.7991,2.5559 1.8871,7.3471 2.4177,10.6471 0.5306,3.3 1.4281,7.8 1.9944,10 0.5664,2.2 1.5055,6.3625 2.0869,9.25 2.292,11.3826 3.2372,15.9317 4.2076,20.25 0.5562,2.475 1.4718,7.2 2.0345,10.5 0.5628,3.3 1.6473,8.0969 2.41,10.6598 0.7627,2.5629 1.8443,7.8866 2.4036,11.8303 0.5593,3.9437 1.4256,7.9339 1.9249,8.867 0.4994,0.9331 1.3954,5.2005 1.991,9.4831 0.5957,4.2827 1.501,8.5676 2.0119,9.5222 0.5108,0.9545 1.2434,4.6385 1.6279,8.1866 0.3845,3.548 1.295,7.9155 2.0233,9.7055 0.7283,1.79 1.6283,6.065 2,9.5 0.3717,3.435 1.2415,7.6377 1.9328,9.3392 0.6913,1.7015 1.5867,5.9344 1.9896,9.4063 0.403,3.4719 1.3056,7.7047 2.0059,9.4063 0.7003,1.7015 1.6003,5.9765 2,9.5 0.3997,3.5234 1.2997,7.7984 2,9.5 0.7003,1.7015 1.6003,5.9765 2,9.5 0.3997,3.5234 1.3494,7.8965 2.1104,9.7178 0.7611,1.8214 1.3837,4.578 1.3837,6.1258 0,1.5478 0.6826,5.2748 1.5168,8.2822 0.8342,3.0073 1.9725,8.3929 2.5296,11.9679 0.557,3.575 1.6478,8.75 2.4239,11.5 0.7761,2.75 1.8664,7.475 2.4229,10.5 1.1824,6.4277 2.8403,14.6514 4.2336,21 2.239,10.202 2.7831,12.7408 3.8036,17.75 0.5883,2.8875 1.5509,7.6125 2.1392,10.5 0.5883,2.8875 1.5139,7.275 2.0568,9.75 0.9199,4.1932 1.7346,8.2455 3.7599,18.7006 0.6342,3.2742 0.4979,4.3217 -0.6181,4.75 -0.7875,0.3021 -7.9096,0.5494 -15.8269,0.5494 -14.1982,0 -14.4173,-0.034 -16.0109,-2.4659 -0.8886,-1.3562 -2.0452,-5.9254 -2.5701,-10.1538 -0.525,-4.2283 -1.4335,-8.5829 -2.0189,-9.6768 -0.5855,-1.0939 -1.4499,-5.0588 -1.9211,-8.8109 -0.4711,-3.7522 -1.499,-8.9755 -2.2843,-11.6073 -0.7852,-2.6319 -1.8882,-7.4853 -2.451,-10.7853 -0.5627,-3.3 -1.5282,-8.25 -2.1455,-11 -2.9057,-12.945 -5.0707,-23.3303 -5.5707,-26.7213 -1.0246,-6.9496 0.1863,-6.7805 -48.4413,-6.7634 -23.9401,0.01 -44.0234,0.3459 -44.6294,0.75 -1.6693,1.1129 -5.0562,11.9877 -5.7897,18.5898 -0.3578,3.2204 -1.0876,6.6718 -1.6217,7.6698 -0.5341,0.998 -1.4288,5.0412 -1.9881,8.985 -0.5593,3.9437 -1.6409,9.2673 -2.4036,11.8302 -0.7627,2.563 -1.8566,7.3599 -2.4309,10.6599 -1.4123,8.1156 -3.0647,16.1704 -4.3081,21 -0.5663,2.2 -1.4933,6.7 -2.0599,10 -0.5666,3.3 -1.1883,6.5625 -1.3817,7.25 -0.2626,0.9335 -4.4183,1.25 -16.4144,1.25 -13.5585,0 -16.1551,-0.2407 -16.6552,-1.5439 z m 137.1012,-125.0738 c 2.9468,-1.1308 3.6913,-3.9886 2.1066,-8.086 -0.8076,-2.088 -1.9284,-6.9463 -2.4907,-10.7963 -0.5623,-3.85 -1.7062,-9.4606 -2.5421,-12.4679 -0.8359,-3.0074 -1.5198,-6.7344 -1.5198,-8.2822 0,-1.5478 -0.6226,-4.3044 -1.3837,-6.1258 -0.761,-1.8213 -1.717,-6.1842 -2.1245,-9.6952 -0.4075,-3.511 -1.3034,-7.9779 -1.9909,-9.9264 -0.6875,-1.9486 -1.5621,-6.0088 -1.9436,-9.0227 -0.3814,-3.0139 -1.3072,-7.5048 -2.0573,-9.9798 -0.75,-2.475 -1.6758,-6.9659 -2.0573,-9.9798 -0.3815,-3.0139 -1.3121,-7.233 -2.0681,-9.3758 -0.756,-2.1427 -1.3746,-5.0912 -1.3746,-6.5522 0,-1.461 -0.6825,-5.1169 -1.5167,-8.1243 -0.8343,-3.0073 -1.9672,-8.3929 -2.5177,-11.9679 -0.5504,-3.575 -1.6293,-8.525 -2.3974,-11 -0.7681,-2.475 -1.686,-6.9403 -2.0398,-9.923 -0.3537,-2.9826 -1.0769,-6.2334 -1.607,-7.2239 -0.5301,-0.9906 -1.3921,-5.1786 -1.9155,-9.3068 -1.0355,-8.1674 -5.4317,-18.5205 -7.1392,-16.813 -0.537,0.537 -1.4055,4.0061 -1.9299,7.7091 -0.5244,3.703 -1.5778,8.8309 -2.341,11.3952 -0.7631,2.5643 -1.8574,7.3624 -2.4317,10.6624 -1.2777,7.342 -2.9576,15.6644 -4.2388,21 -0.5283,2.2 -1.4306,6.475 -2.005,9.5 -0.5744,3.025 -1.4751,7.3 -2.0014,9.5 -0.5263,2.2 -1.424,6.7 -1.9949,10 -0.5708,3.3 -1.6965,8.25 -2.5015,11 -0.8051,2.75 -1.864,7.9915 -2.3532,11.6478 -0.4892,3.6562 -1.3474,7.5033 -1.907,8.5489 -0.5596,1.0457 -1.3321,4.8042 -1.7166,8.3523 -0.3845,3.548 -1.2647,7.8432 -1.9561,9.5447 -0.6913,1.7015 -1.584,5.9765 -1.9837,9.5 -0.3997,3.5235 -1.2997,7.7985 -2,9.5 -0.7003,1.7015 -1.6029,5.9344 -2.0059,9.4063 -0.4029,3.4719 -1.296,7.7047 -1.9845,9.4063 -1.8464,4.5633 -2.724,14.3355 -1.4938,16.6342 1.012,1.8909 2.3229,1.9595 37.4317,1.9595 20.0107,0 37.1074,-0.278 37.9926,-0.6177 z m 317.016,125.3677 c -0.2614,-0.6875 -0.3598,-80.675 -0.2186,-177.75 l 0.2566,-176.5 22.5,-0.2823 c 12.375,-0.1553 23.4852,-0.041 24.6893,0.2538 1.7302,0.4237 2.3341,1.5314 2.8799,5.2823 0.3798,2.6104 1.2539,5.8712 1.9424,7.2462 0.6886,1.375 1.5834,4.525 1.9884,7 0.4051,2.475 1.3051,5.625 2,7 0.695,1.375 1.595,4.525 2,7 0.4051,2.475 1.2999,5.625 1.9884,7 0.6886,1.375 1.5789,4.7441 1.9786,7.4868 0.3996,2.7428 1.3048,6.1178 2.0116,7.5 0.7067,1.3823 1.6164,4.5382 2.0214,7.0132 0.4051,2.475 1.2957,5.625 1.9792,7 0.6835,1.375 1.5431,4.4597 1.9104,6.855 0.3672,2.3952 1.3298,5.6354 2.139,7.2003 0.8093,1.565 1.4714,3.9761 1.4714,5.358 0,1.382 0.8361,4.6668 1.8579,7.2997 1.0219,2.6328 2.1427,6.64 2.4907,8.9047 0.348,2.2647 1.3092,5.4147 2.1359,7 0.8268,1.5853 1.5059,4.0073 1.5092,5.3823 0,1.375 0.906,5.3125 2.0061,8.75 1.1001,3.4375 2.9003,9.0625 4.0004,12.5 1.1001,3.4375 2.0001,7.2848 2,8.5497 -10e-5,1.2648 0.6329,3.5238 1.4067,5.0201 0.7737,1.4963 1.8948,5.3607 2.4914,8.5875 0.5965,3.2269 1.4981,6.3678 2.0036,6.9799 0.5056,0.612 1.2233,2.9128 1.595,5.1128 0.3718,2.2 1.537,6.5893 2.5895,9.754 1.0525,3.1647 1.9136,6.6745 1.9136,7.7996 0,1.1252 0.6315,3.2668 1.4032,4.7592 0.7718,1.4925 1.7159,4.7986 2.0981,7.347 0.3821,2.5484 1.5441,6.03 2.5821,7.7368 1.9213,3.1594 4.6798,4.115 5.3496,1.8534 0.5615,-1.8959 3.4695,-13.5515 4.9275,-19.75 0.7115,-3.025 1.7692,-6.4 2.3505,-7.5 0.5812,-1.1 1.3872,-4.025 1.7911,-6.5 0.4039,-2.475 1.2978,-5.625 1.9863,-7 0.6886,-1.375 1.5775,-4.75 1.9754,-7.5 0.3978,-2.75 1.1351,-5.5008 1.6384,-6.1128 0.5033,-0.6121 1.4031,-3.753 1.9996,-6.9798 0.5965,-3.2269 1.7176,-7.0913 2.4914,-8.5876 0.7737,-1.4963 1.4068,-3.641 1.4068,-4.7662 0,-1.1251 0.8612,-4.6349 1.9136,-7.7996 1.0525,-3.1647 2.2178,-7.554 2.5895,-9.754 0.3718,-2.2 1.0895,-4.5008 1.595,-5.1128 0.5055,-0.6121 1.3859,-3.638 1.9564,-6.7242 0.5705,-3.0863 1.6889,-6.8605 2.4853,-8.3872 0.7963,-1.5267 1.4506,-3.9008 1.4539,-5.2758 0,-1.375 0.8797,-5.2 1.9477,-8.5 3.6922,-11.4087 6.0875,-20.007 6.0731,-21.7997 -0.01,-0.9898 0.6186,-3.0239 1.3924,-4.5201 0.7737,-1.4963 1.8948,-5.3607 2.4914,-8.5876 0.5965,-3.2268 1.4963,-6.3677 1.9995,-6.9798 0.5033,-0.612 1.2406,-3.3628 1.6385,-6.1128 0.3979,-2.75 1.3271,-6.1903 2.065,-7.645 0.7378,-1.4548 1.642,-4.6048 2.0092,-7 0.3672,-2.3953 1.2269,-5.48 1.9104,-6.855 0.6834,-1.375 1.5731,-4.525 1.977,-7 0.7916,-4.8506 2.1496,-8.0647 3.9018,-9.2347 1.3195,-0.881 44.7541,-1.0273 47.0185,-0.1583 1.4342,0.5503 1.5818,17.1175 1.5818,177.4809 v 176.874 l -2.25,0.5565 c -1.2375,0.3062 -8.55,0.4272 -16.25,0.2691 l -14,-0.2875 -0.5,-138 c -0.5089,-140.4738 -0.7294,-148.074 -3.9996,-137.8992 -0.6893,2.1446 -1.8499,4.5859 -2.5792,5.4253 -0.7293,0.8394 -1.6363,3.5394 -2.0156,6 -0.3794,2.4606 -1.5258,6.628 -2.5477,9.2609 -1.0218,2.6329 -1.8579,5.9177 -1.8579,7.2997 0,1.3819 -0.6621,3.793 -1.4714,5.358 -0.8092,1.5649 -1.7718,4.8051 -2.139,7.2003 -0.3673,2.3953 -1.2366,5.4859 -1.9319,6.8682 -0.6952,1.3822 -1.5911,4.7572 -1.9907,7.5 -0.3997,2.7427 -1.3304,6.1771 -2.0682,7.6318 -0.7379,1.4548 -1.642,4.6048 -2.0092,7 -0.3673,2.3953 -1.2269,5.48 -1.9104,6.855 -0.6835,1.375 -1.5741,4.525 -1.9792,7 -0.405,2.475 -1.3055,5.625 -2.001,7 -0.6955,1.375 -1.5844,4.862 -1.9754,7.7489 -0.391,2.8869 -1.0885,5.4822 -1.55,5.7674 -0.4615,0.2852 -1.3501,3.0982 -1.9748,6.2511 -0.6247,3.1529 -1.7241,7.0826 -2.4433,8.7326 -0.7191,1.65 -1.6011,4.9597 -1.9601,7.355 -0.3589,2.3952 -1.3147,5.6353 -2.124,7.2003 -0.8092,1.565 -1.4714,3.9761 -1.4714,5.358 0,1.382 -0.836,4.6668 -1.8579,7.2997 -1.0218,2.6328 -2.1666,6.7897 -2.5439,9.2374 -0.3772,2.4477 -1.12,4.9735 -1.6506,5.6128 -0.5306,0.6393 -1.4525,3.8116 -2.0486,7.0496 -0.5961,3.238 -1.4724,6.3595 -1.9475,6.9368 -0.4751,0.5773 -1.1779,3.0139 -1.5618,5.4146 -0.3838,2.4008 -1.733,7.3285 -2.9981,10.9504 l -2.3001,6.5854 -17.2911,0.2747 c -19.1621,0.3043 -19.7938,0.1061 -19.8065,-6.2158 0,-1.6824 -0.6578,-4.308 -1.4541,-5.8347 -0.7964,-1.5267 -1.9148,-5.301 -2.4853,-8.3872 -0.5705,-3.0863 -1.4509,-6.1122 -1.9564,-6.7242 -0.5055,-0.612 -1.2232,-2.9128 -1.595,-5.1128 -0.3717,-2.2 -1.537,-6.5893 -2.5895,-9.754 -1.0524,-3.1647 -1.9136,-6.6745 -1.9136,-7.7997 0,-1.1251 -0.6148,-3.2608 -1.3663,-4.746 -0.7515,-1.4852 -1.6657,-4.5003 -2.0315,-6.7003 -0.3658,-2.2 -1.2865,-5.575 -2.0459,-7.5 -1.3094,-3.3192 -3.0102,-9.643 -5.9167,-22 -0.7116,-3.025 -1.7598,-6.4 -2.3295,-7.5 -0.5698,-1.1 -1.3354,-3.9598 -1.7016,-6.355 -0.3661,-2.3952 -1.3278,-5.6354 -2.1371,-7.2003 -0.8092,-1.565 -1.4714,-3.7659 -1.4714,-4.8911 0,-1.1251 -0.8611,-4.6349 -1.9136,-7.7996 -1.0525,-3.1647 -2.2177,-7.554 -2.5895,-9.754 -0.3717,-2.2 -1.0894,-4.5008 -1.595,-5.1128 -0.5055,-0.6121 -1.3859,-3.638 -1.9564,-6.7242 -0.5705,-3.0863 -1.6889,-6.8605 -2.4852,-8.3872 -0.7964,-1.5267 -1.4506,-3.9008 -1.4539,-5.2758 0,-1.375 -0.8722,-5.2 -1.9308,-8.5 -3.5701,-11.128 -6.0299,-19.9788 -6.5974,-23.7379 -0.3723,-2.4665 -1.3149,-4.133 -2.7712,-4.8997 -1.2138,-0.639 -2.5376,-1.657 -2.9417,-2.2621 -0.404,-0.6052 -0.7415,61.289 -0.75,137.5427 -0.014,125.4928 -0.1653,138.7006 -1.5971,139.25 -0.8699,0.3338 -8.0841,0.607 -16.0313,0.607 -10.6396,0 -14.575,-0.3296 -14.9249,-1.25 z m 1378.7879,0.6004 c -0.9933,-0.4109 -1.25,-36.839 -1.25,-177.4147 v -176.8976 l 2.3178,-0.5817 c 1.2748,-0.32 23.6623,-0.4319 49.75,-0.2486 36.132,0.2537 48.1469,0.6432 50.4322,1.6345 1.65,0.7158 5.25,1.7223 8,2.2368 11.022,2.0619 27.9629,13.7083 34.068,23.4209 2.9992,4.7713 6.3661,11.8658 6.4069,13.5 0.021,0.825 0.747,2.85 1.6142,4.5 2.7732,5.2761 3.6706,18.0674 4.1043,58.5 0.4552,42.4355 -0.8631,65.5598 -4.0937,71.8071 -0.8798,1.7015 -1.5997,3.7808 -1.5997,4.6207 0,0.8399 -1.395,4.1247 -3.1001,7.2996 -5.4976,10.2368 -10.4435,15.8822 -18.3999,21.0024 -2.75,1.7697 -5.5097,3.6479 -6.1327,4.1738 -0.623,0.5259 -3.0939,1.4842 -5.4909,2.1297 -8.2565,2.2232 -12.1396,6.8435 -8.3764,9.9667 0.825,0.6847 1.5,1.7355 1.5,2.3351 0,0.5996 1.7795,4.707 3.9545,9.1275 2.175,4.4206 4.4239,9.1624 4.9976,10.5374 0.5737,1.375 1.4624,3.175 1.9748,4 0.8937,1.439 3.8105,7.7388 6.0189,13 0.5772,1.375 1.5008,3.175 2.0524,4 0.5517,0.825 1.4517,2.625 2,4 0.5484,1.375 1.3979,3.175 1.8879,4 0.49,0.825 2.1058,4.2 3.5906,7.5 1.4848,3.3 3.1128,6.675 3.6178,7.5 0.505,0.825 1.1762,2.175 1.4914,3 0.3152,0.825 2.3051,5.1 4.4218,9.5 2.1168,4.4 6.6097,13.85 9.9842,21 3.3745,7.15 6.5597,13.675 7.0782,14.5 0.5184,0.825 1.2218,2.175 1.5631,3 0.3412,0.825 1.7074,3.8747 3.0358,6.7772 1.3285,2.9025 2.1448,5.715 1.8142,6.25 -0.3497,0.5659 -7.4058,0.9728 -16.8679,0.9728 -15.7104,0 -16.341,-0.079 -18.441,-2.3145 -1.1959,-1.2729 -2.1743,-2.7885 -2.1743,-3.3679 0,-0.5794 -1.9625,-4.8994 -4.361,-9.6001 -2.3986,-4.7006 -4.6355,-9.3725 -4.971,-10.3821 -0.3355,-1.0095 -1.0252,-2.5104 -1.5328,-3.3354 -0.8828,-1.435 -6.4178,-12.9262 -16.6178,-34.5 -2.6004,-5.5 -5.1317,-10.675 -5.6251,-11.5 -0.4934,-0.825 -1.3743,-2.625 -1.9576,-4 -1.9192,-4.5239 -9.033,-19.4691 -9.996,-21 -0.5189,-0.825 -1.3921,-2.625 -1.9405,-4 -0.5483,-1.375 -1.4501,-3.175 -2.004,-4 -0.5538,-0.825 -1.2749,-2.175 -1.6023,-3 -0.3275,-0.825 -2.8382,-6.1125 -5.5793,-11.75 l -4.9839,-10.25 h -17.7919 c -13.6747,0 -18.05,0.3109 -18.907,1.3436 -0.7889,0.9506 -1.1904,20.3307 -1.3725,66.25 l -0.2573,64.9064 -15.5,0.1837 c -8.525,0.1011 -16.0625,-0.049 -16.75,-0.3333 z m 79.656,-162.3603 c 7.945,-0.6177 13.2362,-1.5085 14.7148,-2.4773 1.2699,-0.8321 2.863,-1.5128 3.5403,-1.5128 1.5922,0 8.8359,-4.9156 11.0523,-7.5 4.833,-5.6357 6.7866,-8.4199 6.7866,-9.6719 0,-0.7607 0.7114,-2.3987 1.5808,-3.64 0.8695,-1.2414 1.9624,-4.829 2.4287,-7.9725 0.4663,-3.1436 1.321,-8.8656 1.8994,-12.7156 1.2882,-8.5759 1.3972,-63.713 0.1423,-72 -0.4997,-3.3 -1.3611,-9.0683 -1.9141,-12.8183 -0.5531,-3.7501 -1.4301,-7.3501 -1.949,-8 -0.5188,-0.65 -1.2685,-2.2406 -1.6658,-3.5348 -1.9411,-6.3219 -9.0389,-13.783 -16.8516,-17.7141 -8.5332,-4.2936 -27.5326,-6.7183 -49.0025,-6.2538 -13.3377,0.2887 -14.9753,0.5173 -16.2559,2.2702 -1.2092,1.655 -1.3855,14.026 -1.1682,81.9705 l 0.2559,80.0214 2.5,1.2647 c 3.0475,1.5417 25.8352,1.6892 43.906,0.2843 z m 345.3412,162.1838 c -0.9975,-0.6333 -1.2013,-36.8432 -1,-177.7346 l 0.2528,-176.9393 h 72.5 72.5 v 13 13 l -54.1457,0.5 c -51.4558,0.4752 -54.2502,0.5946 -56.25,2.405 -2.0975,1.8988 -2.1043,2.1127 -2.1043,66.1933 v 64.2883 l 2.2225,1.5567 c 1.9206,1.3452 7.5956,1.5567 41.7775,1.5567 34.1819,0 39.8569,0.2114 41.7775,1.5567 2.0862,1.4612 2.2225,2.2909 2.2225,13.5247 0,11.9268 -0.01,11.9715 -2.5651,12.9433 -1.513,0.5753 -19.1353,0.9753 -42.9648,0.9753 -38.9186,0 -40.4377,0.071 -41.4349,1.9342 -0.6826,1.2755 -1.0352,23.7122 -1.0352,65.8776 0,58.2494 0.1472,64.0655 1.653,65.3157 1.3492,1.1202 11.9651,1.4209 57.75,1.6361 51.152,0.2403 56.2072,0.4114 57.347,1.9411 0.84,1.1274 1.25,5.6793 1.25,13.8794 0,10.2041 -0.259,12.3013 -1.5818,12.8089 -2.3798,0.9132 -146.7237,0.6998 -148.171,-0.2191 z"
       id="path1"
       inkscape:highlight-color="#f37fff" />
  </g>
</svg>
